<?xml version="1.0" encoding="utf-8"?>
<!-- Generator: Adobe Illustrator 26.4.1, SVG Export Plug-In . SVG Version: 6.00 Build 0)  -->
<svg version="1.1" id="Layer_1" xmlns="http://www.w3.org/2000/svg" xmlns:xlink="http://www.w3.org/1999/xlink" x="0px" y="0px"
	 viewBox="0 0 123.91 27.58" style="enable-background:new 0 0 123.91 27.58;" xml:space="preserve">
<style type="text/css">
	.st0{opacity:0.2;fill:#FFFFFF;}
	.st1{fill:#FFFFFF;}
	.st2{fill:#91D100;}
	.st3{fill:#7100FF;}
	.st4{fill:#FFFFFF;stroke:#FFFFFF;stroke-width:0.1468;stroke-miterlimit:10;}
	.st5{fill:#FF0000;}
	.st6{clip-path:url(#SVGID_00000108297867027052068370000001526568200910240687_);}
	.st7{fill:#EB0045;}
	.st8{opacity:0.75;}
	.st9{fill:none;stroke:#FFFFFF;stroke-width:1.3806;stroke-linecap:round;stroke-miterlimit:10;}
	.st10{clip-path:url(#SVGID_00000021832228265836203580000001472666099998211496_);}
	.st11{clip-path:url(#SVGID_00000015326592198662692130000005527304928444808839_);}
	.st12{clip-path:url(#SVGID_00000159445178931089408920000017552060274462263171_);}
	.st13{clip-path:url(#SVGID_00000119797398677176197660000006725833863653818528_);}
	.st14{clip-path:url(#SVGID_00000000906952849425209620000014923922561609877148_);}
	.st15{fill:#410099;}
	.st16{fill:#A7A4DF;}
	.st17{fill:#CDDE00;}
	.st18{clip-path:url(#SVGID_00000096776424058804522200000000147228966375359620_);}
	.st19{clip-path:url(#SVGID_00000013888078598924142650000004972508392881870264_);}
	.st20{fill-rule:evenodd;clip-rule:evenodd;fill:#CDDE00;}
	.st21{fill-rule:evenodd;clip-rule:evenodd;fill:#410099;}
	.st22{fill-rule:evenodd;clip-rule:evenodd;fill:#A7A4DF;}
	.st23{clip-path:url(#SVGID_00000126289397729667370480000004565924424365746348_);}
	.st24{fill:none;stroke:#606060;stroke-width:0.4756;stroke-miterlimit:10;}
	.st25{fill:#FF0030;}
	.st26{fill:#2D2D2D;}
	.st27{fill:none;stroke:#FFFFFF;stroke-width:0.5088;stroke-miterlimit:10;}
	.st28{fill:#95D200;}
	.st29{fill:#838BFF;}
	.st30{fill:#FFFFFF;stroke:#FFFFFF;stroke-width:0.4406;stroke-miterlimit:10;}
	.st31{fill:#FF003F;}
	.st32{fill:#A4A4A4;}
	.st33{fill:#96908F;}
	.st34{fill:#FFFFFF;stroke:#FFFFFF;stroke-width:0.0922;stroke-miterlimit:10;}
	.st35{fill:url(#SVGID_00000107569063742821191810000018317129496782992567_);}
	.st36{fill:url(#SVGID_00000124873366547077934310000018127502286995950759_);}
	.st37{fill:url(#SVGID_00000114062144404131144830000002838107628500255677_);}
	.st38{fill:url(#SVGID_00000088126331526499993230000011742975490249231545_);}
	.st39{opacity:0.2;enable-background:new    ;}
	.st40{opacity:0.12;enable-background:new    ;}
	.st41{opacity:0.25;fill:#FFFFFF;enable-background:new    ;}
	.st42{fill:#FFFFFF;stroke:#EC174D;stroke-width:0.1869;stroke-miterlimit:10;}
	.st43{fill:#606060;}
	.st44{fill:#FF003E;}
</style>
<g>
	<g>
		<g>
			<path class="st43" d="M72.91,18.95h0.94l1.67,5.65l3.25-5.65h0.89l-0.94,6.74h-0.63l0.83-5.94H78.9l-3.4,5.94h-0.28l-1.78-5.94
				h-0.02l-0.83,5.94h-0.63L72.91,18.95z"/>
			<path class="st43" d="M82.05,22.32c0.08-0.51,0.23-0.99,0.46-1.42c0.23-0.43,0.52-0.8,0.88-1.12c0.35-0.31,0.75-0.56,1.21-0.74
				c0.45-0.18,0.93-0.27,1.45-0.27c0.51,0,0.97,0.09,1.38,0.27c0.4,0.18,0.73,0.42,0.99,0.74c0.26,0.31,0.45,0.69,0.56,1.12
				s0.13,0.9,0.05,1.42c-0.07,0.51-0.22,0.99-0.45,1.42c-0.23,0.44-0.52,0.81-0.88,1.12c-0.35,0.31-0.75,0.56-1.2,0.73
				c-0.45,0.17-0.93,0.26-1.45,0.26c-0.51,0-0.97-0.09-1.38-0.26c-0.4-0.17-0.74-0.42-1-0.73c-0.26-0.31-0.45-0.69-0.56-1.12
				C81.99,23.31,81.98,22.84,82.05,22.32z M82.67,22.32c-0.06,0.42-0.04,0.81,0.04,1.17s0.23,0.68,0.44,0.94
				c0.21,0.27,0.48,0.48,0.81,0.63s0.71,0.23,1.15,0.23c0.44,0,0.84-0.08,1.22-0.23s0.7-0.36,0.99-0.63
				c0.29-0.27,0.52-0.58,0.7-0.94s0.3-0.75,0.36-1.17c0.06-0.42,0.05-0.81-0.03-1.17c-0.08-0.36-0.22-0.68-0.43-0.94
				s-0.48-0.48-0.81-0.63c-0.33-0.15-0.72-0.23-1.16-0.23c-0.44,0-0.84,0.08-1.22,0.23c-0.38,0.15-0.71,0.36-0.99,0.63
				s-0.52,0.58-0.71,0.94C82.85,21.51,82.73,21.9,82.67,22.32z"/>
			<path class="st43" d="M92.42,18.95h0.81l3.27,5.9h0.02l0.83-5.9h0.63l-0.94,6.74h-0.81l-3.27-5.9h-0.02l-0.83,5.9h-0.63
				L92.42,18.95z"/>
			<path class="st43" d="M101.35,18.95h4.12l-0.08,0.57h-3.49l-0.34,2.4h3.27l-0.08,0.57h-3.27l-0.37,2.63h3.65l-0.08,0.57h-4.27
				L101.35,18.95z"/>
			<path class="st43" d="M109.47,22.79l-1.93-3.84h0.75l1.59,3.2l2.53-3.2h0.71l-3.02,3.84l-0.4,2.9h-0.63L109.47,22.79z"/>
		</g>
	</g>
	<g>
		<g>
			<path class="st43" d="M80.07,15.55h-1.2c-0.1,0-0.19-0.06-0.22-0.16l-1.82-5.5l-1.79,5.5c-0.03,0.1-0.12,0.16-0.22,0.16h-1.2
				c-0.1,0-0.19-0.06-0.22-0.16l-2.39-7.56C71,7.76,71.01,7.68,71.06,7.62c0.04-0.06,0.11-0.09,0.19-0.09h1.18
				c0.1,0,0.19,0.07,0.22,0.17l1.63,5.49l1.82-5.49c0.03-0.09,0.12-0.16,0.22-0.16h1.07c0.1,0,0.19,0.06,0.22,0.16l1.85,5.5
				l1.62-5.49c0.03-0.1,0.12-0.17,0.22-0.17h1.16c0.07,0,0.14,0.03,0.19,0.09c0.04,0.06,0.06,0.14,0.03,0.21l-2.39,7.56
				C80.26,15.49,80.17,15.55,80.07,15.55z"/>
		</g>
		<g>
			<path class="st43" d="M93.5,15.55h-1.1c-0.13,0-0.23-0.1-0.23-0.23v-4.19c0-0.38-0.03-0.73-0.09-1.04
				c-0.06-0.29-0.16-0.54-0.3-0.75c-0.14-0.2-0.31-0.35-0.54-0.46c-0.4-0.19-1.07-0.26-1.65-0.01c-0.24,0.1-0.46,0.27-0.65,0.48
				c-0.19,0.22-0.35,0.5-0.47,0.84c-0.12,0.35-0.18,0.76-0.18,1.24v3.88c0,0.13-0.1,0.23-0.23,0.23h-1.1c-0.13,0-0.23-0.1-0.23-0.23
				V3.1c0-0.13,0.1-0.23,0.23-0.23h1.1c0.13,0,0.23,0.1,0.23,0.23v5.19C88.48,8.08,88.72,7.9,89,7.75c0.5-0.28,1.05-0.42,1.63-0.42
				c1.03,0,1.81,0.31,2.34,0.94c0.51,0.61,0.77,1.42,0.77,2.41v4.64C93.74,15.45,93.63,15.55,93.5,15.55z M88.09,9L88.09,9L88.09,9z
				"/>
		</g>
		<g>
			<path class="st43" d="M100.05,15.55h-1.1c-0.13,0-0.23-0.1-0.23-0.23V7.76c0-0.13,0.1-0.23,0.23-0.23h1.1
				c0.13,0,0.23,0.1,0.23,0.23v7.56C100.28,15.45,100.18,15.55,100.05,15.55z M99.5,5.85c-0.25,0-0.48-0.09-0.69-0.28
				c-0.21-0.19-0.32-0.44-0.32-0.73c0-0.29,0.11-0.54,0.32-0.73c0.41-0.37,0.97-0.37,1.38,0c0.21,0.19,0.32,0.44,0.32,0.73
				c0,0.29-0.11,0.54-0.32,0.73C99.99,5.76,99.76,5.85,99.5,5.85z"/>
		</g>
		<g>
			<path class="st43" d="M107.71,15.75c-0.6,0-1.19-0.13-1.76-0.37c-0.58-0.25-1.06-0.66-1.42-1.2c-0.07-0.1-0.05-0.24,0.05-0.32
				l0.87-0.65c0.05-0.04,0.12-0.05,0.19-0.04c0.06,0.01,0.12,0.05,0.15,0.11c0.17,0.3,0.43,0.55,0.77,0.76
				c0.52,0.31,1.2,0.36,1.76,0.25c0.19-0.04,0.35-0.1,0.48-0.19c0.13-0.09,0.24-0.2,0.32-0.33c0.08-0.13,0.11-0.3,0.11-0.51
				c0-0.31-0.14-0.53-0.45-0.69c-0.37-0.19-0.91-0.37-1.6-0.54c-0.23-0.06-0.48-0.12-0.74-0.21c-0.28-0.09-0.54-0.22-0.77-0.39
				c-0.24-0.17-0.44-0.4-0.6-0.66c-0.16-0.27-0.24-0.61-0.24-1.01c0-0.43,0.09-0.8,0.26-1.11c0.17-0.31,0.4-0.56,0.68-0.76
				c0.27-0.19,0.59-0.34,0.94-0.43c0.88-0.23,1.83-0.17,2.7,0.24c0.54,0.26,0.95,0.62,1.22,1.09c0.06,0.1,0.03,0.23-0.06,0.3
				l-0.84,0.63c-0.05,0.04-0.13,0.06-0.19,0.04c-0.07-0.01-0.12-0.06-0.15-0.12c-0.14-0.27-0.36-0.5-0.65-0.68
				c-0.43-0.26-0.96-0.33-1.54-0.21c-0.17,0.04-0.31,0.1-0.44,0.18c-0.12,0.08-0.22,0.18-0.29,0.3c-0.07,0.12-0.1,0.25-0.1,0.41
				c0,0.28,0.1,0.48,0.33,0.62c0.27,0.17,0.7,0.32,1.29,0.44c0.94,0.19,1.62,0.47,2.08,0.85c0.48,0.4,0.72,0.93,0.72,1.59
				c0,0.47-0.09,0.88-0.28,1.21c-0.18,0.33-0.43,0.6-0.72,0.8c-0.29,0.2-0.63,0.35-0.99,0.44C108.44,15.7,108.08,15.75,107.71,15.75
				z"/>
		</g>
		<g>
			<path class="st43" d="M121.91,15.55h-1.1c-0.13,0-0.23-0.1-0.23-0.23v-4.19c0-0.38-0.03-0.73-0.09-1.04
				c-0.06-0.29-0.16-0.54-0.3-0.75c-0.13-0.2-0.32-0.35-0.54-0.46c-0.4-0.2-1.05-0.27-1.65-0.01c-0.24,0.1-0.46,0.27-0.65,0.48
				c-0.19,0.22-0.35,0.5-0.47,0.84c-0.12,0.35-0.18,0.76-0.18,1.24v3.88c0,0.13-0.1,0.23-0.23,0.23h-1.1c-0.13,0-0.23-0.1-0.23-0.23
				V3.1c0-0.13,0.1-0.23,0.23-0.23h1.1c0.13,0,0.23,0.1,0.23,0.23v5.19c0.19-0.21,0.43-0.39,0.71-0.54
				c0.51-0.28,1.06-0.42,1.63-0.42c1.03,0,1.81,0.31,2.34,0.94c0.51,0.61,0.77,1.42,0.77,2.41v4.64
				C122.14,15.45,122.04,15.55,121.91,15.55z M116.49,9L116.49,9L116.49,9z"/>
		</g>
	</g>
	<path class="st44" d="M67.96,5.4c-0.15-1.49-1.34-2.68-2.88-2.89c-1.49-0.2-2.72,0.58-3.26,2.06c-0.52,1.45-0.98,2.95-1.42,4.4
		c-0.19,0.61-0.37,1.23-0.56,1.84c-0.29,0.91-0.57,1.82-0.85,2.73l-0.24,0.76l-0.03,0l-0.31-0.86c-0.27-0.76-0.54-1.52-0.82-2.27
		c-0.22-0.6-0.44-1.2-0.66-1.8c-0.62-1.69-1.26-3.44-1.95-5.14c-0.46-1.13-1.44-1.75-2.79-1.75c-1.34,0.01-2.3,0.62-2.85,1.83
		c-0.27,0.59-0.49,1.12-0.67,1.62c-0.77,2.14-1.54,4.28-2.3,6.42l-0.7,1.96l-0.07,0l-0.1-0.3c-0.12-0.35-0.24-0.71-0.36-1.07
		c-0.28-0.86-0.56-1.73-0.84-2.6c-0.59-1.84-1.21-3.74-1.84-5.6c-0.48-1.41-1.54-2.26-2.84-2.26c-0.02,0-0.04,0-0.06,0
		c-0.02,0-0.03-0.02-0.05-0.02H25.61c-0.1,0-0.18,0.07-0.19,0.16c-0.01,0.09,0.04,0.18,0.13,0.21l10.7,3.18H8.82
		c-0.1,0-0.18,0.08-0.19,0.18C8.63,6.32,8.7,6.4,8.8,6.42l27.9,3.71H1.74c-0.1,0-0.18,0.08-0.19,0.18c-0.01,0.1,0.06,0.19,0.16,0.2
		l37.1,5.54H16.16c-0.1,0-0.18,0.07-0.19,0.17c-0.01,0.1,0.06,0.19,0.15,0.21l24.9,4.63H26.26c-0.1,0-0.18,0.07-0.19,0.17
		c-0.01,0.09,0.05,0.19,0.14,0.21l18.33,4.53c0.09,0.03,0.18,0.05,0.27,0.07L45,26.08c0.02,0,0.03,0.01,0.05,0.01c0,0,0,0,0.01,0
		c0.17,0.02,0.34,0.04,0.52,0.04c1.38,0,2.34-0.64,2.84-1.91c0.56-1.41,1.11-2.82,1.66-4.23l0.33-0.85
		c0.38-0.98,0.76-1.96,1.18-3.02l0.58-1.49c0.04,0.08,0.07,0.16,0.1,0.23c0.15,0.33,0.25,0.57,0.35,0.81c0.36,0.9,0.72,1.8,1.07,2.7
		c0.75,1.91,1.53,3.88,2.34,5.81c0.53,1.26,1.6,2.01,2.88,2.01c0.38,0,0.76-0.07,1.13-0.21c1.26-0.46,1.75-1.58,2.1-2.58
		c1.7-4.83,3.46-9.94,5.55-16.09C67.85,6.81,68.03,6.09,67.96,5.4z"/>
</g>
</svg>
